HIERARCHY
ROOT Hips
{
	OFFSET 0.000000 0.000000 0.000000
	CHANNELS 6 Xposition Yposition Zposition Xrotation Yrotation Zrotation
	JOINT LeftUpLeg_virtual
	{
		OFFSET 0.000000 0.000000 0.000000
		CHANNELS 3 Xrotation Yrotation Zrotation
		JOINT LeftUpLeg
		{
			OFFSET 15.427100 -6.655098 0.678600
			CHANNELS 3 Xrotation Yrotation Zrotation
			JOINT LeftLeg
			{
				OFFSET 4.081073 -39.591068 13.024000
				CHANNELS 3 Xrotation Yrotation Zrotation
				JOINT LeftFoot
				{
					OFFSET -4.081074 -37.707932 -15.979700
					CHANNELS 3 Xrotation Yrotation Zrotation
					JOINT LeftToeBase
					{
						OFFSET 5.346399 -15.068900 20.645000
						CHANNELS 3 Xrotation Yrotation Zrotation
						JOINT LeftToe_End
						{
							OFFSET 2.754700 0.931300 11.300900
							CHANNELS 3 Xrotation Yrotation Zrotation
							End Site
							{
								OFFSET 0 0 0
							}
						}
					}
				}
			}
		}
	}
	JOINT RightUpLeg_virtual
	{
		OFFSET 0.000000 0.000000 0.000000
		CHANNELS 3 Xrotation Yrotation Zrotation
		JOINT RightUpLeg
		{
			OFFSET -15.569500 -6.655098 0.678600
			CHANNELS 3 Xrotation Yrotation Zrotation
			JOINT RightLeg
			{
				OFFSET -4.081825 -39.591045 13.023800
				CHANNELS 3 Xrotation Yrotation Zrotation
				JOINT RightFoot
				{
					OFFSET 4.081824 -37.707954 -15.979600
					CHANNELS 3 Xrotation Yrotation Zrotation
					JOINT RightToeBase
					{
						OFFSET -5.346400 -15.068900 20.645000
						CHANNELS 3 Xrotation Yrotation Zrotation
						JOINT RightToe_End
						{
							OFFSET -2.754700 0.931300 11.300900
							CHANNELS 3 Xrotation Yrotation Zrotation
							End Site
							{
								OFFSET 0 0 0
							}
						}
					}
				}
			}
		}
	}
	JOINT Spine_virtual
	{
		OFFSET 0.000000 0.000000 0.000000
		CHANNELS 3 Xrotation Yrotation Zrotation
		JOINT Spine
		{
			OFFSET -0.279200 12.230698 -2.892100
			CHANNELS 3 Xrotation Yrotation Zrotation
			JOINT Spine1
			{
				OFFSET -0.232667 10.192268 -1.242267
				CHANNELS 3 Xrotation Yrotation Zrotation
				JOINT Spine1_split
				{
					OFFSET -0.232667 10.192268 -1.242267
					CHANNELS 3 Xrotation Yrotation Zrotation
					JOINT Spine2
					{
						OFFSET -0.232667 10.192268 -1.242267
						CHANNELS 3 Xrotation Yrotation Zrotation
						JOINT Neck_virtual
						{
							OFFSET 0.000000 0.000000 0.000000
							CHANNELS 3 Xrotation Yrotation Zrotation
							JOINT Neck
							{
								OFFSET -0.418800 17.814194 8.416900
								CHANNELS 3 Xrotation Yrotation Zrotation
								JOINT Head
								{
									OFFSET 0.000000 7.031097 3.806800
									CHANNELS 3 Xrotation Yrotation Zrotation
									JOINT HeadTop_End
									{
										OFFSET 0.000000 24.646606 12.978600
										CHANNELS 3 Xrotation Yrotation Zrotation
										End Site
										{
											OFFSET 0 0 0
										}
									}
								}
							}
						}
						JOINT LeftShoulder_virtual
						{
							OFFSET 0.000000 0.000000 0.000000
							CHANNELS 3 Xrotation Yrotation Zrotation
							JOINT LeftShoulder
							{
								OFFSET 8.476499 7.247704 -3.868750
								CHANNELS 3 Xrotation Yrotation Zrotation
								JOINT LeftShoulder_split
								{
									OFFSET 8.476499 7.247704 -3.868750
									CHANNELS 3 Xrotation Yrotation Zrotation
									JOINT LeftArm
									{
										OFFSET 9.308998 -2.777710 0.208600
										CHANNELS 3 Xrotation Yrotation Zrotation
										JOINT LeftForeArm
										{
											OFFSET 29.972298 0.000000 0.000000
											CHANNELS 3 Xrotation Yrotation Zrotation
											JOINT LeftHand
											{
												OFFSET 26.026505 0.000000 0.000000
												CHANNELS 3 Xrotation Yrotation Zrotation
												End Site
												{
													OFFSET 0 0 0
												}
											}
										}
									}
								}
							}
						}
						JOINT RightShoulder_virtual
						{
							OFFSET 0.000000 0.000000 0.000000
							CHANNELS 3 Xrotation Yrotation Zrotation
							JOINT RightShoulder
							{
								OFFSET -7.570500 7.247704 -3.868750
								CHANNELS 3 Xrotation Yrotation Zrotation
								JOINT RightShoulder_split
								{
									OFFSET -7.570500 7.247704 -3.868750
									CHANNELS 3 Xrotation Yrotation Zrotation
									JOINT RightArm
									{
										OFFSET -9.308998 -2.777710 0.208500
										CHANNELS 3 Xrotation Yrotation Zrotation
										JOINT RightForeArm
										{
											OFFSET -29.972300 0.000000 0.000000
											CHANNELS 3 Xrotation Yrotation Zrotation
											JOINT RightHand
											{
												OFFSET -26.026505 0.000000 0.000000
												CHANNELS 3 Xrotation Yrotation Zrotation
												End Site
												{
													OFFSET 0 0 0
												}
											}
										}
									}
								}
							}
						}
					}
				}
			}
		}
	}
}
MOTION
Frames: 10
Frame Time: 0.03333333
4.179722 45.237778 -19.045128 0.000000 0.000000 0.000000 30.099868 -4.017098 4.212246 -97.386422 -11.457779 26.148874 105.065562 1.816075 -4.185139 -5.595042 -17.030532 -7.497892 -42.997287 -1.155558 -2.510987 0.000000 0.000000 0.000000 32.929633 -2.661058 3.712783 -92.891864 -9.368205 -10.502644 112.014126 22.926589 0.301525 -27.722102 6.134635 -21.788601 -44.793029 0.817330 -1.338424 0.000000 0.000000 0.000000 31.733366 -7.986474 4.050916 8.133352 1.904711 -3.487785 24.072981 1.829049 -4.754786 1.562035 -0.107477 0.789458 0.000000 0.000000 0.000000 23.529831 1.887402 -4.781666 -25.999161 -4.718658 0.905611 -28.308882 -7.371420 3.216849 0.000000 0.000000 0.000000 22.661845 2.130292 -5.267102 1.685366 -2.165854 1.159856 0.860306 -5.825676 0.709195 -22.330158 -27.817243 -23.056502 -146.888600 -82.624156 -147.125116 0.000000 0.000000 0.000000 23.311017 2.254176 -5.148498 7.346137 28.343140 7.022706 0.562522 2.717708 -1.251922 -34.175603 7.528794 27.672435 10.131180 72.605847 -20.821710 0.000000 0.000000 0.000000 
4.778468 41.542870 -19.923576 0.000000 0.000000 0.000000 32.452469 -1.220689 4.541996 -95.108117 -15.408840 27.945369 110.260809 1.106033 -2.890450 -13.812140 -15.941311 -15.568687 -44.161182 -0.387393 -3.728378 0.000000 0.000000 0.000000 35.276517 -0.851061 4.316826 -101.536438 -1.933110 -10.725534 117.059716 20.524874 -1.079864 -23.845107 2.167524 -17.722452 -48.916930 1.038883 -1.210975 0.000000 0.000000 0.000000 35.106851 -5.701608 4.503166 6.985727 1.410282 -3.722426 22.241579 1.605802 -3.946478 1.640760 -0.011268 1.122510 0.000000 0.000000 0.000000 21.573040 1.572136 -4.096223 -21.607459 -4.369852 0.262032 -29.808937 -8.653937 2.749069 0.000000 0.000000 0.000000 20.758439 1.818663 -4.357057 1.218525 -2.095696 -0.455554 0.705789 -5.259586 0.539480 -20.870956 -32.380018 -22.308928 -154.163285 -82.528220 -155.636433 0.000000 0.000000 0.000000 21.221982 1.779589 -4.423264 7.332871 30.362452 9.574043 0.596816 2.698788 -1.298489 -36.381358 13.051254 25.158293 6.476025 66.727649 -15.498992 0.000000 0.000000 0.000000 
5.275219 39.006607 -20.938972 0.000000 0.000000 0.000000 34.348475 1.385222 4.674033 -92.631312 -19.487600 29.371285 112.303029 -0.486671 -1.373438 -19.021624 -15.103003 -24.627456 -43.206619 -0.111130 -4.119592 0.000000 0.000000 0.000000 37.022996 0.324742 4.931511 -108.167752 4.426617 -10.366522 119.897988 18.764425 -2.061856 -18.246562 -0.775326 -11.440189 -51.799256 1.371632 -1.219933 0.000000 0.000000 0.000000 37.850695 -3.727661 4.919032 6.079291 0.655028 -3.866836 20.188004 1.385726 -2.986551 1.370656 0.004781 1.442628 0.000000 0.000000 0.000000 19.446901 1.239363 -3.271863 -17.519311 -4.000610 -0.369620 -31.109982 -9.428795 2.417645 0.000000 0.000000 0.000000 18.784564 1.442720 -3.364721 0.723054 -1.788790 -2.465311 0.213464 -4.276007 -0.057957 -18.859424 -36.924925 -23.483369 -154.143053 -84.768494 -156.624980 0.000000 0.000000 0.000000 19.005194 1.317685 -3.515843 7.191576 31.403010 12.194976 0.298185 2.593651 -1.098613 -38.187260 16.758988 23.921413 4.371642 61.852486 -11.566153 0.000000 0.000000 0.000000 
5.603946 37.404324 -21.657707 0.000000 0.000000 0.000000 35.766917 3.481598 4.570318 -90.520449 -22.956151 30.931072 112.417694 -2.023582 -0.505180 -21.190057 -15.056061 -31.694697 -43.668398 -0.516637 -3.346318 0.000000 0.000000 0.000000 38.213577 1.005420 5.340892 -112.482608 8.853240 -9.807370 121.178293 17.321028 -2.438113 -13.681140 -2.318920 -5.168815 -51.993647 1.773175 -1.334549 0.000000 0.000000 0.000000 39.654839 -2.081407 5.200746 5.598029 -0.249012 -3.890121 18.249811 1.149335 -2.065075 1.112218 -0.358511 1.559659 0.000000 0.000000 0.000000 17.483841 0.907299 -2.456679 -14.299470 -3.647936 -0.915419 -32.227127 -9.763507 2.317713 0.000000 0.000000 0.000000 17.070465 0.991613 -2.491568 0.235495 -1.372008 -4.532514 -0.615028 -2.857602 -0.857245 -16.825546 -40.555037 -25.826204 -132.169338 -88.389417 -135.343559 0.000000 0.000000 0.000000 17.033457 0.885921 -2.600472 7.039901 31.558090 14.448529 -0.084576 2.228611 -0.577289 -39.767988 18.626766 23.616414 3.050030 58.635145 -8.434238 0.000000 0.000000 0.000000 
5.654966 36.353802 -22.106071 0.000000 0.000000 0.000000 36.610015 4.715011 4.372443 -89.161781 -25.239900 32.685618 112.350417 -2.549434 -0.912148 -21.441386 -15.466531 -34.790323 -44.978350 -0.897125 -3.082550 0.000000 0.000000 0.000000 39.016913 1.460550 5.420278 -114.594633 11.002603 -9.516683 121.796767 15.815856 -1.879516 -11.685059 -3.170741 -1.088875 -50.182086 2.179970 -1.506418 0.000000 0.000000 0.000000 40.474557 -0.586892 5.223907 5.592557 -1.166908 -3.777993 16.718637 0.870891 -1.337443 0.911850 -1.057904 1.469503 0.000000 0.000000 0.000000 15.986766 0.604541 -1.798718 -12.178179 -3.414364 -1.287329 -33.208096 -9.657495 2.469205 0.000000 0.000000 0.000000 15.826867 0.541681 -1.850683 -0.199619 -0.932430 -6.376788 -1.630732 -1.347430 -1.712612 -15.292090 -42.942157 -28.550843 -2.782527 -87.276096 -6.297921 0.000000 0.000000 0.000000 15.543065 0.517741 -1.836819 7.008860 30.926417 15.944421 -0.122081 1.988402 0.138389 -41.176441 19.259873 23.650886 2.085353 56.967719 -5.846203 0.000000 0.000000 0.000000 
5.534121 35.607330 -22.411011 0.000000 0.000000 0.000000 36.954390 5.041125 4.122409 -88.922349 -26.081451 34.475189 112.839950 -1.999427 -2.227773 -21.280921 -15.681093 -34.663367 -46.656220 -0.799274 -3.811253 0.000000 0.000000 0.000000 39.320515 1.654715 5.216130 -115.030330 11.158184 -9.803280 122.491998 14.238160 -0.546390 -11.637497 -3.883574 0.620562 -47.828973 2.580388 -1.771121 0.000000 0.000000 0.000000 40.391191 0.706758 4.997593 6.015685 -1.998280 -3.570703 15.745738 0.586446 -0.900998 0.843077 -2.054913 1.392264 0.000000 0.000000 0.000000 15.047387 0.374542 -1.389641 -11.138450 -3.275327 -1.496512 -34.068789 -9.139106 2.814743 0.000000 0.000000 0.000000 15.119423 0.150840 -1.486993 -0.568905 -0.635343 -7.672764 -2.733581 0.052937 -2.431874 -14.597359 -43.760370 -30.950521 7.881336 -84.712610 4.369897 0.000000 0.000000 0.000000 14.641006 0.243498 -1.318572 7.092490 29.935831 16.699307 0.067514 2.238163 0.931384 -42.423183 19.604940 23.608600 1.319199 56.006728 -3.754894 0.000000 0.000000 0.000000 
5.333352 35.099903 -22.275909 0.000000 0.000000 0.000000 37.105665 4.634770 3.955991 -89.001538 -25.689224 36.296383 113.730252 -1.080545 -3.429599 -21.814192 -15.561065 -33.188572 -48.667529 -0.580750 -4.624552 0.000000 0.000000 0.000000 39.251502 1.806498 4.860534 -114.781425 10.164611 -10.553012 123.306115 12.989038 0.863839 -12.597430 -4.144293 1.096755 -46.171334 2.952154 -2.116549 0.000000 0.000000 0.000000 39.880867 1.781144 4.601321 6.613017 -2.634460 -3.303601 15.333406 0.314965 -0.706305 1.182903 -2.953784 1.352987 0.000000 0.000000 0.000000 14.644202 0.216849 -1.226340 -10.846360 -3.263265 -1.571855 -34.788978 -8.354399 3.231886 0.000000 0.000000 0.000000 14.882023 -0.137945 -1.333225 -0.859043 -0.440215 -8.376179 -3.614221 0.901920 -2.785103 -14.550892 -43.393718 -32.741864 13.329994 -84.097606 10.045916 0.000000 0.000000 0.000000 14.272703 0.062201 -1.043450 7.178985 28.823135 16.859506 0.339317 3.097726 1.740279 -43.504337 20.381249 23.472777 0.737039 55.112308 -2.196489 0.000000 0.000000 0.000000 
5.192625 34.853317 -22.066689 0.000000 0.000000 0.000000 37.228489 4.037183 3.775338 -89.358402 -24.713851 37.573619 114.554184 -0.536774 -3.974433 -22.695737 -15.234568 -31.919496 -49.259536 -0.278860 -5.419490 0.000000 0.000000 0.000000 39.189290 2.252603 4.302653 -114.411529 8.866067 -11.490691 123.909781 12.204305 1.863139 -13.870109 -3.695243 0.907419 -45.458549 3.235519 -2.487630 0.000000 0.000000 0.000000 39.253469 2.329675 4.247985 7.067403 -3.044019 -3.034119 15.368098 0.101103 -0.664793 1.569284 -3.328174 1.285888 0.000000 0.000000 0.000000 14.618717 0.133940 -1.279229 -10.832858 -3.394922 -1.657993 -35.191327 -7.438943 3.597073 0.000000 0.000000 0.000000 15.040042 -0.296853 -1.253957 -1.053467 -0.247654 -8.574454 -4.364372 1.145433 -2.830437 -14.517437 -42.400407 -33.866042 21.199422 -85.149940 18.292985 0.000000 0.000000 0.000000 14.264163 -0.031233 -0.950356 7.153741 27.761319 16.762500 0.444561 4.307452 2.533150 -44.300863 21.679555 23.237427 0.352099 54.297374 -1.187148 0.000000 0.000000 0.000000 
5.179450 34.889385 -21.672859 0.000000 0.000000 0.000000 37.491400 3.684351 3.470217 -89.888957 -23.831824 38.252037 114.668672 -0.697321 -3.746040 -23.551903 -15.010517 -31.304338 -48.665460 -0.253949 -5.593368 0.000000 0.000000 0.000000 39.385821 3.027679 3.641044 -114.078284 7.698334 -12.331987 124.049486 11.674551 2.268223 -15.100519 -2.616779 0.204344 -45.166344 3.442158 -2.882445 0.000000 0.000000 0.000000 38.835930 2.317022 4.055861 7.127605 -3.240969 -2.791591 15.636936 -0.006265 -0.699244 2.094225 -3.088562 1.201347 0.000000 0.000000 0.000000 14.749290 0.117964 -1.453938 -10.756082 -3.565750 -1.839630 -35.270947 -6.670064 3.775441 0.000000 0.000000 0.000000 15.341723 -0.321328 -1.172393 -1.197144 -0.106101 -8.457440 -4.732389 0.893596 -2.614762 -14.431450 -41.267658 -34.703211 38.590924 -86.771475 36.061568 0.000000 0.000000 0.000000 14.436571 -0.047687 -0.962980 6.965739 26.953907 16.757674 0.255971 5.155444 2.959580 -44.744194 23.111805 23.001330 0.083681 53.786568 -0.624530 0.000000 0.000000 0.000000 
5.194805 35.113262 -21.179581 0.000000 0.000000 0.000000 38.056096 3.835927 3.066232 -90.388449 -23.220695 38.566428 113.942582 -1.225970 -3.371492 -24.163925 -15.023232 -30.279267 -47.287777 -0.579291 -5.230001 0.000000 0.000000 0.000000 39.777406 3.789375 3.075004 -113.843824 6.821757 -13.073797 123.710777 11.419346 2.227738 -15.819196 -1.140051 -0.763545 -44.793241 3.580585 -3.310276 0.000000 0.000000 0.000000 38.673583 2.000573 3.938604 6.773061 -3.262658 -2.573103 15.949540 -0.009796 -0.786969 2.071665 -2.318242 1.135938 0.000000 0.000000 0.000000 14.908985 0.171794 -1.645937 -10.484230 -3.828015 -2.247752 -35.156473 -6.026352 3.682762 0.000000 0.000000 0.000000 15.524492 -0.208781 -1.056347 -1.297304 -0.104815 -8.387891 -4.631894 0.233138 -2.459060 -14.252611 -40.503117 -35.539612 66.593361 -87.548163 64.299708 0.000000 0.000000 0.000000 14.593372 -0.024127 -1.004389 6.732097 26.395459 16.906651 -0.399113 5.352311 3.036563 -44.689139 23.981614 22.655022 -0.072987 53.773963 -0.420765 0.000000 0.000000 0.000000 
